PathFileType	4	(x/y/z)	S08_PSF_T13
DataRate	CameraRate	NumFrames	NumMarkers	Units	OrigDataRate	OrigDataStartFrame	OrigNumFrames
240	240	11	51	mm	240	370	422
Frame#	Time	Sternum			R.Acromium			L.Acromium			Top.Head			R.ASIS			L.ASIS			R.PSIS			L.PSIS			R.Great.Tro			L.Great.Tro			R.Iliac.Crest			L.Iliac.Crest			V.Sacral			R.Thigh.Upper.Post			R.Thigh.Lower.Ant			R.Thigh.Lower.Post			R.Thigh.Upper.Ant			R.Knee.Lat			R.Knee.Med			R.Shank.Upper.Post			R.Shank.Lower.Ant			R.Shank.Lower.Post			R.Shank.Upper.Ant			R.Ankle.Lat			R.Ankle.Med			R.Heel.Upper			R.Heel.Med			R.Heel.Lat			R.Toe.Lat			R.Toe.Med			R.Toe.Tip			L.Thigh.Upper.Post			L.Thigh.Lower.Ant			L.Thigh.Lower.Post			L.Thigh.Upper.Ant			L.Knee.Lat			L.Knee.Med			L.Shank.Upper.Post			L.Shank.Lower.Ant			L.Shank.Lower.Post			L.Shank.Upper.Ant			L.Ankle.Lat			L.Ankle.Med			L.Heel.Upper			L.Heel.Med			L.Heel.Lat			L.Toe.Lat			L.Toe.Med			L.Toe.Tip			Cervical.Spine			Back			
		X1	Y1	Z1	X2	Y2	Z2	X3	Y3	Z3	X4	Y4	Z4	X5	Y5	Z5	X6	Y6	Z6	X7	Y7	Z7	X8	Y8	Z8	X9	Y9	Z9	X10	Y10	Z10	X11	Y11	Z11	X12	Y12	Z12	X13	Y13	Z13	X14	Y14	Z14	X15	Y15	Z15	X16	Y16	Z16	X17	Y17	Z17	X18	Y18	Z18	X19	Y19	Z19	X20	Y20	Z20	X21	Y21	Z21	X22	Y22	Z22	X23	Y23	Z23	X24	Y24	Z24	X25	Y25	Z25	X26	Y26	Z26	X27	Y27	Z27	X28	Y28	Z28	X29	Y29	Z29	X30	Y30	Z30	X31	Y31	Z31	X32	Y32	Z32	X33	Y33	Z33	X34	Y34	Z34	X35	Y35	Z35	X36	Y36	Z36	X37	Y37	Z37	X38	Y38	Z38	X39	Y39	Z39	X40	Y40	Z40	X41	Y41	Z41	X42	Y42	Z42	X43	Y43	Z43	X44	Y44	Z44	X45	Y45	Z45	X46	Y46	Z46	X47	Y47	Z47	X48	Y48	Z48	X49	Y49	Z49	X50	Y50	Z50	X51	Y51	Z51	

370	1.5375	492.32	1216.4	321.3	383.61	1458	497.4	374.32	1488.1	163.56	389.67	1774.5	346.85	466.45	1007.7	428.34	464.33	1008.3	194.97	263.79	1030.2	358.51	267	1036.6	264.54	409.64	901.65	501.8	362.88	905.2	132.67	369.63	1074.5	477.51	371.49	1091.5	169.27	249.8	992.92	309.39	459.89	703.99	492.29	564.46	637.61	457.66	495.49	622.47	472.69	533.76	726	476.83	570.28	539.57	451.65	540.03	529.07	326.16	558.94	347.87	462.56	635.58	304.82	441.99	580.26	273.67	455.96	614.36	379.44	449.9	630.63	108.69	422.27	657.3	135.13	344.74	600.89	58.913	370.73	622.58	39.623	343.94	612.19	36.968	405.1	NaN	NaN	NaN	794.95	104.96	344.61	846.1	143.27	393.54	310.6	714.57	145.56	372.29	608.87	178.52	306.23	623.53	168.74	377.96	694.64	152.27	294.29	515.83	193.95	294.18	518.87	319.27	190.76	351.04	197.66	237	252.39	224.6	171.63	281.39	216.66	250.65	325.69	205.98	155.86	107.56	240.99	178.3	110	325.67	97.267	81.273	290.02	109.63	44.732	319.13	102.88	55.012	255.54	277.93	39.395	215.98	299.5	36.402	331.64	363.37	50.583	281.11	313.48	1517	324.66	258.69	1235.2	330.12
371	1.5417	497.8	1215.5	321.45	389.15	1457.1	497.59	379.88	1487.2	163.76	395.08	1773.6	347.06	472	1006.8	428.42	469.58	1007.4	195.03	269.28	1029.3	358.87	272.41	1035.7	264.95	415.25	900.79	502.02	367.75	904.55	132.75	375.27	1073.6	477.75	376.78	1090.7	169.51	255.24	992.04	309.76	464.59	702.89	492.69	569	636.28	457.88	500.01	621.28	472.99	538.53	724.71	477.18	574.9	538.42	451.81	544.39	527.82	326.27	566.53	346.57	462.42	643.96	304.83	441.66	589.14	272.7	455.6	621.41	379.1	449.8	642.73	108.5	421.51	668.83	135.72	343.97	613.97	58.18	369.87	635.99	39.436	342.94	625.73	36.371	404.12	NaN	NaN	NaN	807.18	108.17	343.64	857.65	147.31	392.62	314.59	714.36	145.61	375.76	608.31	178.49	309.76	623.31	168.86	381.83	694.04	152.24	297.19	515.64	194.06	297.42	518.62	319.42	192.61	351.5	197.86	238.26	252.53	224.65	173.07	281.96	216.86	252.36	325.74	206.06	156.25	108.11	241.14	178.8	110.44	325.78	97.533	81.844	290.24	109.8	45.259	319.33	103.03	55.573	255.74	277.99	39.351	216.01	299.64	36.366	331.61	363.55	50.251	281.07	319.01	1516.1	324.84	264.22	1234.3	330.32
372	1.5458	503.3	1214.5	321.62	394.7	1456.2	497.8	385.47	1486.3	163.96	400.5	1772.7	347.29	477.58	1005.9	428.51	474.86	1006.5	195.1	274.78	1028.4	359.24	277.86	1034.8	265.38	420.92	899.93	502.23	372.66	903.9	132.84	380.94	1072.7	478	382.1	1089.8	169.75	260.7	991.17	310.13	469.38	701.82	493.08	573.62	634.99	458.08	504.62	620.13	473.27	543.38	723.45	477.54	579.56	537.29	451.96	548.82	526.61	326.37	573.95	345.32	462.25	652.1	304.83	441.31	597.77	271.78	455.21	628.33	378.75	449.69	654.39	108.36	420.73	679.95	136.32	343.18	626.56	57.557	368.97	648.88	39.338	341.92	638.74	35.874	403.11	NaN	NaN	NaN	818.91	111.25	342.67	868.72	151.15	391.73	318.64	714.15	145.68	379.3	607.74	178.48	313.36	623.08	169.01	385.75	693.45	152.22	300.18	515.45	194.19	300.74	518.37	319.58	194.54	351.99	198.06	239.57	252.68	224.7	174.57	282.55	217.05	254.14	325.8	206.15	156.66	108.7	241.28	179.33	110.91	325.88	97.82	82.483	290.43	109.98	45.858	319.52	103.2	56.193	255.91	278.05	39.307	216.04	299.79	36.339	331.58	363.73	49.909	281.02	324.55	1515.2	325.03	269.76	1233.4	330.53
373	1.55	508.81	1213.5	321.81	400.25	1455.3	498.01	391.07	1485.4	164.18	405.91	1771.8	347.52	483.18	1005	428.61	480.16	1005.7	195.17	280.31	1027.5	359.62	283.34	1034	265.82	426.63	899.08	502.44	377.6	903.24	132.94	386.64	1071.8	478.26	387.45	1089	170.01	266.18	990.29	310.5	474.25	700.78	493.43	578.34	633.74	458.28	509.32	619.02	473.51	548.33	722.23	477.89	584.28	536.18	452.09	553.31	525.45	326.45	581.22	344.11	462.04	660.03	304.79	440.95	606.14	270.9	454.79	635.11	378.38	449.56	665.58	108.26	419.93	690.64	136.92	342.37	638.64	57.028	368.04	661.23	39.308	340.86	651.2	35.462	402.05	NaN	NaN	NaN	830.15	114.16	341.72	879.32	154.75	390.87	322.75	713.94	145.77	382.91	607.19	178.47	317.03	622.84	169.17	389.73	692.85	152.23	303.27	515.25	194.34	304.17	518.11	319.76	196.56	352.5	198.26	240.94	252.86	224.75	176.13	283.18	217.24	255.99	325.88	206.24	157.1	109.34	241.4	179.88	111.43	325.96	98.131	83.192	290.6	110.17	46.532	319.69	103.38	56.877	256.07	278.11	39.26	216.06	299.93	36.322	331.55	363.92	49.557	280.97	330.1	1514.4	325.23	275.32	1232.5	330.74
374	1.5542	514.35	1212.5	322.01	405.81	1454.3	498.25	396.69	1484.5	164.4	411.32	1771	347.77	488.81	1004.1	428.72	485.49	1004.8	195.25	285.87	1026.6	360.01	288.84	1033.1	266.28	432.4	898.24	502.65	382.56	902.59	133.05	392.38	1070.9	478.53	392.83	1088.2	170.27	271.69	989.43	310.89	479.21	699.79	493.75	583.16	632.53	458.46	514.11	617.95	473.72	553.38	721.06	478.24	589.05	535.1	452.2	557.89	524.35	326.51	588.32	342.96	461.79	667.72	304.73	440.57	614.26	270.06	454.34	641.77	377.99	449.41	676.28	108.18	419.1	700.87	137.49	341.55	650.16	56.576	367.07	673	39.323	339.78	663.08	35.116	400.98	NaN	NaN	NaN	840.86	116.87	340.78	889.43	158.08	390.03	326.92	713.72	145.89	386.59	606.63	178.48	320.78	622.6	169.36	393.78	692.26	152.25	306.46	515.05	194.5	307.69	517.84	319.95	198.66	353.03	198.46	242.37	253.05	224.8	177.77	283.83	217.43	257.92	325.97	206.34	157.56	110.02	241.51	180.46	111.98	326.03	98.467	83.976	290.75	110.36	47.285	319.83	103.58	57.626	256.2	278.18	39.212	216.09	300.08	36.317	331.51	364.12	49.195	280.92	335.67	1513.5	325.44	280.89	1231.6	330.96
375	1.5583	519.9	1211.6	322.24	411.38	1453.4	498.49	402.33	1483.6	164.63	416.72	1770.1	348.02	494.45	1003.3	428.84	490.84	1003.9	195.33	291.45	1025.8	360.4	294.38	1032.2	266.73	438.21	897.42	502.87	387.56	901.95	133.17	398.14	1070.1	478.8	398.25	1087.3	170.53	277.23	988.58	311.27	484.27	698.83	494.03	588.08	631.39	458.62	519.01	616.93	473.9	558.53	719.94	478.58	593.9	534.06	452.27	562.58	523.32	326.55	595.26	341.85	461.51	675.19	304.61	440.17	622.12	269.25	453.86	648.3	377.56	449.24	686.47	108.1	418.24	710.64	138.02	340.71	661.11	56.186	366.08	684.18	39.362	338.69	674.34	34.82	399.88	NaN	NaN	NaN	851.04	119.34	339.85	899.05	161.09	389.22	331.16	713.49	146.03	390.37	606.08	178.51	324.61	622.35	169.58	397.89	691.68	152.29	309.76	514.84	194.68	311.33	517.55	320.16	200.86	353.59	198.66	243.88	253.26	224.84	179.49	284.52	217.6	259.94	326.07	206.45	158.06	110.74	241.59	181.07	112.57	326.08	98.83	84.839	290.86	110.57	48.121	319.95	103.8	58.446	256.31	278.25	39.163	216.11	300.24	36.325	331.47	364.33	48.825	280.88	341.25	1512.6	325.67	286.48	1230.7	331.18
376	1.5625	525.48	1210.6	322.49	416.95	1452.5	498.76	407.98	1482.7	164.88	422.13	1769.2	348.28	500.12	1002.4	428.98	496.22	1003.1	195.42	297.05	1024.9	360.8	299.95	1031.3	267.2	444.05	896.61	503.08	392.59	901.31	133.3	403.94	1069.2	479.08	403.7	1086.5	170.8	282.79	987.73	311.66	489.43	697.92	494.26	593.12	630.3	458.76	524.02	615.97	474.03	563.78	718.87	478.91	598.83	533.06	452.32	567.39	522.35	326.57	602.04	340.79	461.19	682.43	304.45	439.76	629.71	268.47	453.35	654.72	377.11	449.04	696.14	108	417.37	719.93	138.48	339.85	671.47	55.844	365.06	694.73	39.406	337.59	684.97	34.56	398.76	NaN	NaN	NaN	860.68	121.53	338.95	908.17	163.76	388.44	335.48	713.26	146.21	394.24	605.53	178.55	328.54	622.09	169.82	402.09	691.1	152.35	313.17	514.63	194.88	315.08	517.25	320.38	203.16	354.18	198.85	245.45	253.49	224.88	181.29	285.24	217.77	262.05	326.18	206.55	158.59	111.52	241.64	181.71	113.22	326.1	99.222	85.784	290.95	110.79	49.044	320.05	104.04	59.34	256.39	278.33	39.111	216.12	300.4	36.347	331.42	364.54	48.448	280.83	346.84	1511.8	325.91	292.09	1229.8	331.4
377	1.5667	531.07	1209.7	322.77	422.52	1451.6	499.03	413.66	1481.8	165.13	427.54	1768.4	348.55	505.82	1001.6	429.13	501.64	1002.2	195.53	302.69	1024.1	361.21	305.54	1030.5	267.66	449.93	895.82	503.3	397.66	900.67	133.44	409.78	1068.4	479.36	409.18	1085.7	171.08	288.38	986.9	312.06	494.68	697.05	494.45	598.27	629.28	458.87	529.14	615.05	474.11	569.12	717.87	479.23	603.85	532.12	452.33	572.34	521.47	326.56	608.67	339.78	460.82	689.45	304.23	439.32	637.04	267.71	452.81	661.03	376.63	448.8	705.27	107.88	416.49	728.74	138.85	338.99	681.21	55.538	364.04	704.65	39.436	336.48	694.93	34.322	397.65	NaN	NaN	NaN	869.78	123.41	338.07	916.8	166.04	387.67	339.87	713.02	146.42	398.2	604.99	178.6	332.56	621.82	170.09	406.36	690.53	152.44	316.71	514.4	195.09	318.96	516.93	320.61	205.57	354.79	199.05	247.1	253.74	224.92	183.18	285.99	217.92	264.25	326.31	206.66	159.16	112.36	241.67	182.38	113.91	326.1	99.647	86.814	291	111.02	50.059	320.13	104.31	60.311	256.45	278.42	39.057	216.14	300.56	36.385	331.37	364.76	48.065	280.78	352.44	1511	326.16	297.72	1228.9	331.64
378	1.5708	536.69	1208.8	323.06	428.1	1450.8	499.33	419.35	1480.9	165.39	432.95	1767.5	348.83	511.54	1000.8	429.3	507.09	1001.4	195.65	308.35	1023.2	361.61	311.17	1029.7	268.12	455.84	895.04	503.51	402.76	900.05	133.59	415.65	1067.5	479.66	414.71	1085	171.36	294	986.09	312.46	500.03	696.22	494.6	603.54	628.32	458.96	534.38	614.19	474.15	574.57	716.92	479.53	608.97	531.22	452.29	577.43	520.67	326.51	615.14	338.82	460.42	696.25	303.94	438.87	644.1	266.96	452.24	667.23	376.1	448.53	713.86	107.71	415.6	737.05	139.12	338.13	690.32	55.257	363	713.9	39.435	335.39	704.22	34.096	396.54	NaN	NaN	NaN	878.33	124.95	337.21	924.93	167.92	386.93	344.34	712.77	146.66	402.27	604.45	178.67	336.69	621.55	170.38	410.72	689.97	152.54	320.37	514.17	195.32	322.97	516.6	320.85	208.09	355.43	199.24	248.82	254.02	224.95	185.16	286.78	218.06	266.55	326.45	206.76	159.76	113.24	241.68	183.1	114.65	326.07	100.11	87.934	291.03	111.27	51.169	320.18	104.59	61.363	256.47	278.51	39	216.15	300.72	36.441	331.32	364.98	47.68	280.72	358.06	1510.2	326.42	303.36	1228.1	331.87
379	1.575	542.33	1207.9	323.38	433.68	1449.9	499.63	425.05	1480.1	165.67	438.36	1766.7	349.12	517.28	999.97	429.48	512.58	1000.6	195.78	314.04	1022.4	362.02	316.82	1028.9	268.59	461.76	894.28	503.73	407.91	899.43	133.76	421.55	1066.7	479.96	420.26	1084.2	171.65	299.64	985.3	312.86	505.48	695.43	494.69	608.92	627.43	459.02	539.73	613.39	474.14	580.11	716.03	479.8	614.2	530.38	452.21	582.67	519.96	326.43	621.47	337.9	459.99	702.83	303.58	438.39	650.9	266.23	451.65	673.34	375.55	448.22	721.89	107.48	414.71	744.88	139.27	337.26	698.79	54.994	361.96	722.49	39.392	334.31	712.83	33.873	395.44	NaN	NaN	NaN	886.33	126.13	336.37	932.58	169.36	386.2	348.9	712.51	146.93	406.45	603.92	178.76	340.93	621.27	170.69	415.17	689.41	152.68	324.17	513.93	195.56	327.11	516.25	321.1	210.72	356.09	199.42	250.63	254.32	224.98	187.23	287.61	218.19	268.95	326.61	206.86	160.41	114.19	241.66	183.85	115.44	326.02	100.61	89.147	291.02	111.54	52.379	320.2	104.91	62.501	256.48	278.6	38.942	216.15	300.89	36.517	331.26	365.21	47.294	280.67	363.69	1509.4	326.7	309.02	1227.3	332.12
380	1.5792	548	1207.1	323.71	439.27	1449.1	499.96	430.76	1479.3	165.96	443.78	1766	349.42	523.06	999.2	429.68	518.11	999.84	195.93	319.75	1021.6	362.44	322.5	1028.1	269.05	467.69	893.54	503.96	413.1	898.82	133.94	427.5	1066	480.27	425.86	1083.5	171.94	305.32	984.53	313.27	511.02	694.69	494.74	614.42	626.61	459.05	545.19	612.64	474.08	585.76	715.21	480.05	619.54	529.6	452.08	588.07	519.33	326.31	627.65	337.03	459.52	709.21	303.14	437.89	657.44	265.51	451.04	679.36	374.95	447.87	729.38	107.2	413.83	752.2	139.28	336.39	706.62	54.743	360.93	730.41	39.297	333.26	720.74	33.649	394.37	NaN	NaN	NaN	893.78	126.93	335.54	939.75	170.36	385.47	353.54	712.25	147.24	410.74	603.4	178.86	345.28	620.97	171.03	419.72	688.87	152.83	328.12	513.69	195.82	331.4	515.88	321.36	213.48	356.79	199.6	252.52	254.65	224.99	189.41	288.48	218.31	271.46	326.78	206.96	161.1	115.2	241.61	184.65	116.29	325.93	101.15	90.457	290.99	111.83	53.694	320.2	105.26	63.73	256.45	278.7	38.882	216.16	301.06	36.612	331.2	365.44	46.909	280.62	369.32	1508.6	326.99	314.7	1226.5	332.37
